# xmcd CD database file
#
# Track frame offsets:
#	150
#	20697
#	34212
#	50072
#	69995
#	84722
#	99857
#	113960
#	140660
#
# Disc length: 2190 seconds
#
# Revision: 0
# Processed by: cddbd v1.5.1PL0 Copyright (c) Steve Scherf et al.
# Submitted via: CDex 1.51
#
DISCID=7b088c09
DTITLE=Alessio Barbieri - Jazz in Paradiso
DYEAR=1993
DGENRE=Jazz
TTITLE0=Germaine
TTITLE1=L'assalto al treno
TTITLE2=Il principe azzurro
TTITLE3=Radio Days
TTITLE4=I'm fool
TTITLE5=Gege'
TTITLE6=Jazz in paradiso
TTITLE7=La confessione blues
TTITLE8=Il muro di Berlino
EXTD=YEAR: 1993
EXTT0=
EXTT1=
EXTT2=
EXTT3=
EXTT4=
EXTT5=
EXTT6=
EXTT7=
EXTT8=
PLAYORDER=
